<svg viewBox="0 0 330 200" xmlns="http://www.w3.org/2000/svg"><g><g><g><g><g><line x1="30.766000747680664" y1="176.9089994430542" x2="25.766000747680664" y2="176.9089994430542" style="visibility: inherit;" fill="rgb(0, 0, 0)" stroke="rgb(204, 204, 204)" stroke-width="1px"></line><line x1="30.766000747680664" y1="160.82636313004926" x2="25.766000747680664" y2="160.82636313004926" style="visibility: inherit;" fill="rgb(0, 0, 0)" stroke="rgb(204, 204, 204)" stroke-width="1px"></line><line x1="30.766000747680664" y1="144.74372681704435" x2="25.766000747680664" y2="144.74372681704435" style="visibility: inherit;" fill="rgb(0, 0, 0)" stroke="rgb(204, 204, 204)" stroke-width="1px"></line><line x1="30.766000747680664" y1="128.6610905040394" x2="25.766000747680664" y2="128.6610905040394" style="visibility: inherit;" fill="rgb(0, 0, 0)" stroke="rgb(204, 204, 204)" stroke-width="1px"></line><line x1="30.766000747680664" y1="112.5784541910345" x2="25.766000747680664" y2="112.5784541910345" style="visibility: inherit;" fill="rgb(0, 0, 0)" stroke="rgb(204, 204, 204)" stroke-width="1px"></line><line x1="30.766000747680664" y1="96.49581787802956" x2="25.766000747680664" y2="96.49581787802956" style="visibility: inherit;" fill="rgb(0, 0, 0)" stroke="rgb(204, 204, 204)" stroke-width="1px"></line><line x1="30.766000747680664" y1="80.41318156502464" x2="25.766000747680664" y2="80.41318156502464" style="visibility: inherit;" fill="rgb(0, 0, 0)" stroke="rgb(204, 204, 204)" stroke-width="1px"></line><line x1="30.766000747680664" y1="64.3305452520197" x2="25.766000747680664" y2="64.3305452520197" style="visibility: inherit;" fill="rgb(0, 0, 0)" stroke="rgb(204, 204, 204)" stroke-width="1px"></line><line x1="30.766000747680664" y1="48.24790893901478" x2="25.766000747680664" y2="48.24790893901478" style="visibility: inherit;" fill="rgb(0, 0, 0)" stroke="rgb(204, 204, 204)" stroke-width="1px"></line><line x1="30.766000747680664" y1="32.165272626009845" x2="25.766000747680664" y2="32.165272626009845" style="visibility: inherit;" fill="rgb(0, 0, 0)" stroke="rgb(204, 204, 204)" stroke-width="1px"></line><line x1="30.766000747680664" y1="16.082636313004933" x2="25.766000747680664" y2="16.082636313004933" style="visibility: inherit;" fill="rgb(0, 0, 0)" stroke="rgb(204, 204, 204)" stroke-width="1px"></line><line x1="30.766000747680664" y1="0" x2="25.766000747680664" y2="0" style="visibility: inherit;" fill="rgb(0, 0, 0)" stroke="rgb(204, 204, 204)" stroke-width="1px"></line></g><g transform="translate(20.766000747680664, 0)"><text style="text-anchor: end; visibility: hidden; font-family: Roboto, sans-serif; font-size: 12px; font-weight: 200;" x="0" y="176.9089994430542" dx="0em" dy="0.3em" fill="rgb(255, 255, 255)" stroke="none" stroke-width="1px">27</text><text style="text-anchor: end; visibility: inherit; font-family: Roboto, sans-serif; font-size: 12px; font-weight: 200;" x="0" y="160.82636313004926" dx="0em" dy="0.3em" fill="rgb(255, 255, 255)" stroke="none" stroke-width="1px">28</text><text style="text-anchor: end; visibility: hidden; font-family: Roboto, sans-serif; font-size: 12px; font-weight: 200;" x="0" y="144.74372681704435" dx="0em" dy="0.3em" fill="rgb(255, 255, 255)" stroke="none" stroke-width="1px">29</text><text style="text-anchor: end; visibility: inherit; font-family: Roboto, sans-serif; font-size: 12px; font-weight: 200;" x="0" y="128.6610905040394" dx="0em" dy="0.3em" fill="rgb(255, 255, 255)" stroke="none" stroke-width="1px">30</text><text style="text-anchor: end; visibility: hidden; font-family: Roboto, sans-serif; font-size: 12px; font-weight: 200;" x="0" y="112.5784541910345" dx="0em" dy="0.3em" fill="rgb(255, 255, 255)" stroke="none" stroke-width="1px">31</text><text style="text-anchor: end; visibility: inherit; font-family: Roboto, sans-serif; font-size: 12px; font-weight: 200;" x="0" y="96.49581787802956" dx="0em" dy="0.3em" fill="rgb(255, 255, 255)" stroke="none" stroke-width="1px">32</text><text style="text-anchor: end; visibility: hidden; font-family: Roboto, sans-serif; font-size: 12px; font-weight: 200;" x="0" y="80.41318156502464" dx="0em" dy="0.3em" fill="rgb(255, 255, 255)" stroke="none" stroke-width="1px">33</text><text style="text-anchor: end; visibility: inherit; font-family: Roboto, sans-serif; font-size: 12px; font-weight: 200;" x="0" y="64.3305452520197" dx="0em" dy="0.3em" fill="rgb(255, 255, 255)" stroke="none" stroke-width="1px">34</text><text style="text-anchor: end; visibility: hidden; font-family: Roboto, sans-serif; font-size: 12px; font-weight: 200;" x="0" y="48.24790893901478" dx="0em" dy="0.3em" fill="rgb(255, 255, 255)" stroke="none" stroke-width="1px">35</text><text style="text-anchor: end; visibility: inherit; font-family: Roboto, sans-serif; font-size: 12px; font-weight: 200;" x="0" y="32.165272626009845" dx="0em" dy="0.3em" fill="rgb(255, 255, 255)" stroke="none" stroke-width="1px">36</text><text style="text-anchor: end; visibility: hidden; font-family: Roboto, sans-serif; font-size: 12px; font-weight: 200;" x="0" y="16.082636313004933" dx="0em" dy="0.3em" fill="rgb(255, 255, 255)" stroke="none" stroke-width="1px">37</text><text style="text-anchor: end; visibility: hidden; font-family: Roboto, sans-serif; font-size: 12px; font-weight: 200;" x="0" y="0" dx="0em" dy="0.3em" fill="rgb(255, 255, 255)" stroke="none" stroke-width="1px">38</text></g><line x1="30.766000747680664" y1="0" x2="30.766000747680664" y2="176.9089994430542" fill="rgb(0, 0, 0)" stroke="rgb(204, 204, 204)" stroke-width="1px"></line></g></g><g transform="translate(30, 0)" clip-path="url(#clip_0)"><clipPath id="clip_0"><rect width="299" height="176"></rect></clipPath><g><g><g><line x1="0" y1="0" x2="0" y2="176.9089994430542" fill="rgb(0, 0, 0)" stroke="rgb(189, 189, 189)" stroke-width="1px" opacity="0.25"></line><line x1="37.40424990653992" y1="0" x2="37.40424990653992" y2="176.9089994430542" fill="rgb(0, 0, 0)" stroke="rgb(189, 189, 189)" stroke-width="1px" opacity="0.25"></line><line x1="74.80849981307983" y1="0" x2="74.80849981307983" y2="176.9089994430542" fill="rgb(0, 0, 0)" stroke="rgb(189, 189, 189)" stroke-width="1px" opacity="0.25"></line><line x1="112.21274971961975" y1="0" x2="112.21274971961975" y2="176.9089994430542" fill="rgb(0, 0, 0)" stroke="rgb(189, 189, 189)" stroke-width="1px" opacity="0.25"></line><line x1="149.61699962615967" y1="0" x2="149.61699962615967" y2="176.9089994430542" fill="rgb(0, 0, 0)" stroke="rgb(189, 189, 189)" stroke-width="1px" opacity="0.25"></line><line x1="187.02124953269958" y1="0" x2="187.02124953269958" y2="176.9089994430542" fill="rgb(0, 0, 0)" stroke="rgb(189, 189, 189)" stroke-width="1px" opacity="0.25"></line><line x1="224.4254994392395" y1="0" x2="224.4254994392395" y2="176.9089994430542" fill="rgb(0, 0, 0)" stroke="rgb(189, 189, 189)" stroke-width="1px" opacity="0.25"></line><line x1="261.8297493457794" y1="0" x2="261.8297493457794" y2="176.9089994430542" fill="rgb(0, 0, 0)" stroke="rgb(189, 189, 189)" stroke-width="1px" opacity="0.25"></line><line x1="299.23399925231934" y1="0" x2="299.23399925231934" y2="176.9089994430542" fill="rgb(0, 0, 0)" stroke="rgb(189, 189, 189)" stroke-width="1px" opacity="0.25"></line></g><g><line x1="0" y1="176.9089994430542" x2="299.23399925231934" y2="176.9089994430542" fill="rgb(0, 0, 0)" stroke="rgb(189, 189, 189)" stroke-width="1px" opacity="0.25"></line><line x1="0" y1="160.82636313004926" x2="299.23399925231934" y2="160.82636313004926" fill="rgb(0, 0, 0)" stroke="rgb(189, 189, 189)" stroke-width="1px" opacity="0.25"></line><line x1="0" y1="144.74372681704435" x2="299.23399925231934" y2="144.74372681704435" fill="rgb(0, 0, 0)" stroke="rgb(189, 189, 189)" stroke-width="1px" opacity="0.25"></line><line x1="0" y1="128.6610905040394" x2="299.23399925231934" y2="128.6610905040394" fill="rgb(0, 0, 0)" stroke="rgb(189, 189, 189)" stroke-width="1px" opacity="0.25"></line><line x1="0" y1="112.5784541910345" x2="299.23399925231934" y2="112.5784541910345" fill="rgb(0, 0, 0)" stroke="rgb(189, 189, 189)" stroke-width="1px" opacity="0.25"></line><line x1="0" y1="96.49581787802956" x2="299.23399925231934" y2="96.49581787802956" fill="rgb(0, 0, 0)" stroke="rgb(189, 189, 189)" stroke-width="1px" opacity="0.25"></line><line x1="0" y1="80.41318156502464" x2="299.23399925231934" y2="80.41318156502464" fill="rgb(0, 0, 0)" stroke="rgb(189, 189, 189)" stroke-width="1px" opacity="0.25"></line><line x1="0" y1="64.3305452520197" x2="299.23399925231934" y2="64.3305452520197" fill="rgb(0, 0, 0)" stroke="rgb(189, 189, 189)" stroke-width="1px" opacity="0.25"></line><line x1="0" y1="48.24790893901478" x2="299.23399925231934" y2="48.24790893901478" fill="rgb(0, 0, 0)" stroke="rgb(189, 189, 189)" stroke-width="1px" opacity="0.25"></line><line x1="0" y1="32.165272626009845" x2="299.23399925231934" y2="32.165272626009845" fill="rgb(0, 0, 0)" stroke="rgb(189, 189, 189)" stroke-width="1px" opacity="0.25"></line><line x1="0" y1="16.082636313004933" x2="299.23399925231934" y2="16.082636313004933" fill="rgb(0, 0, 0)" stroke="rgb(189, 189, 189)" stroke-width="1px" opacity="0.25"></line><line x1="0" y1="0" x2="299.23399925231934" y2="0" fill="rgb(0, 0, 0)" stroke="rgb(189, 189, 189)" stroke-width="1px" opacity="0.25"></line></g></g></g><g><g><line x1="0" y1="611.1401798941872" x2="299.23399925231934" y2="611.1401798941872" fill="rgb(0, 0, 0)" stroke="rgb(153, 153, 153)" stroke-width="1.5px"></line></g></g><g><g><line x1="37.40424990653992" y1="0" x2="37.40424990653992" y2="176.9089994430542" fill="rgb(0, 0, 0)" stroke="rgb(153, 153, 153)" stroke-width="1.5px"></line></g></g><g><g><g><g><g><path style="fill: none;" stroke="rgb(255, 112, 67)" stroke-width="2px" d="M47.353780381679535,-70.26469054317153L47.57820588111878,19.74077085354577L48.40109937906266,21.86683380226452L48.47590787887573,31.85665625189394L48.70033337831497,64.00984014884146L48.924758877754215,41.195187244464194L49.37360987663269,57.84391734578886L49.44841837644577,42.81836875197549L49.598035376071934,35.24840567474413L49.747652375698095,20.803640716081308L50.19650337457657,-3.5506108275271346L50.27131187438965,18.974608962223744L50.49573737382889,39.93792343397359L50.57054587364197,58.851934867350366L50.64535437345505,79.93279562032592L51.24382237195969,65.33918728327362L51.543056371212,58.149101385026576L51.99190737009048,44.90380749027345L52.14152436971664,56.129363847856055L52.2911413693428,33.01704640277869L52.51556686878204,33.75399328100138L52.6651838684082,37.65786936420551L53.33846036672592,69.46695852013208L53.413268866539,100.94714148703751L53.93692836523056,95.34018829602026L54.01173686504364,90.73452991431556L54.1613538646698,69.87993592435866L54.23616236448288,110.24358265940121L54.460587863922115,98.34013420359368L54.535396363735195,85.23650061266139L54.610204863548276,94.9102002400702L54.83463036298752,92.37290213769712L55.133864362239834,107.2489545804188L55.358289861679076,74.67950212857166L55.73233236074448,84.73281647599109L55.956757860183714,106.28321414203297L56.106374859809875,77.48853799777815L56.25599185943604,83.74002358611345L56.33080035924912,36.92322510003218L56.4056088590622,9.063234506416213L56.55522585868835,13.022002142792116L56.63003435850143,18.557470330330197L56.704842858314514,20.325997443309177L56.854459857940675,1.9582063333255737L57.15369385719299,1.8490909520810515L57.90177885532379,25.1779482893104L57.97658735513687,48.17776965904491L58.50024685382843,90.47177692337364L58.64986385345459,84.9096710297511L58.72467235326767,95.97317197883912L58.94909785270691,63.36055763300672L59.24833185195923,80.16461608648916L59.47275735139847,104.1100672162173L59.62237435102463,120.31663481937437L59.99641685009003,96.33538345704504L60.07122534990311,76.88777774252112L60.14603384971619,71.6382564102143L60.37045934915543,84.3492387574307L60.59488484859467,94.51644592523492L60.96892734766006,92.30018514509393L61.11854434728622,81.94968837407087L61.64220384597778,82.3379927257085L61.86662934541702,113.96252139972378L62.01624634504318,88.57258841268629L62.24067184448242,60.367782186356344L62.3154803442955,99.88243397588163L62.76433134317398,98.83266215868088L63.0635653424263,101.82268059695059L63.287990841865536,86.24466649626379L63.4376078414917,108.17085060763048L63.58722484111786,87.11527752320798L63.66203334093094,84.80703232099596L63.73684184074402,95.0289652505469L63.961267340183255,111.82574283185902L64.18569283962249,111.41793590340126L64.26050133943558,121.76073373744792L64.41011833906174,147.9727251345688L64.5597353386879,152.46354718980643L64.70935233831406,145.567085066652L64.85896933794021,116.46691253082518L65.00858633756637,99.44725572036693L65.08339483737946,89.46874035234065L65.15820333719253,92.34884822161213L65.3078203368187,97.95548452104134L65.45743733644485,127.02070245517925L65.83147983551025,112.06529418682894L66.0559053349495,129.2761129398975L66.28033083438874,137.79646101650823L66.87879883289337,152.14019783113974L66.95360733270645,160.1790347143657L67.10322433233262,157.1965796405096L67.17803283214569,130.141863114529L67.55207533121109,116.71706503297372L67.70169233083725,97.28981185918632L68.07573482990266,110.40461194560488L68.30016032934189,128.01927119484603L68.37496882915497,116.79844548716665L69.34747932672501,105.66722534856837L69.79633032560349,107.56363342465359L69.87113882541657,148.11051399884263L70.09556432485581,132.22908220202737L70.39479832410812,147.957613755843L70.54441532373428,126.97848602541067L70.61922382354736,112.17856712727077L70.76884082317352,124.54111427858456L70.8436493229866,111.18554817371115L70.99326632261275,132.63401490537885L71.06807482242584,92.15314043454617L71.44211732149124,92.5997918747645L72.04058531999588,114.67453302466339L72.56424481868744,142.1413671669964L72.63905331850052,128.98149972882436L73.16271281719207,135.13984902550288L73.31232981681823,138.28033697959822L73.53675531625747,129.39959973584166L73.98560631513595,120.44690771331723L74.35964881420135,66.28456759105293L74.43445731401444,74.53474202835638L74.50926581382751,87.11147302940728L74.65888281345367,144.6501765452826L74.80849981307983,138.0826874197705L75.10773381233216,130.00450286459952L75.48177631139754,109.87390966133032L75.55658481121063,137.19090833121166L75.85581881046295,134.31057004893333L75.93062731027602,126.31175611374233L76.00543581008911,129.44130610636427L76.15505280971527,148.01102901633433L76.30466980934143,127.53752275113851L76.52909530878067,146.46779740237156L76.67871230840683,117.71348290696801L76.75352080821992,110.78702354469871L76.82832930803298,142.57704010050747L76.97794630765914,128.14935734931007L77.35198880672455,111.70186182903716L77.42679730653762,134.05893230496372L77.50160580635071,130.94464365195427L77.80083980560303,156.60797767528857L77.9504568052292,142.1138232576506L78.02526530504227,124.36332612333972L78.10007380485536,141.62358965736468L78.2496908044815,178.41154436170066L78.47411630392074,176.67895528366319L78.54892480373383,159.31914319806245L78.6237333035469,129.9197769315369L78.84815880298615,153.96885064597336L78.99777580261231,157.78576965481915L79.3718183016777,148.50831752813724L79.4466268014908,121.91240539204136L79.7458608007431,142.93245523129767L79.82066930055618,134.4465404306672L79.97028630018234,108.18045702076758L80.26952029943466,97.04512933839341L80.49394579887391,101.8582961668479L80.64356279850007,100.50622181590418L80.79317979812623,83.70520084077116L80.94279679775238,103.36748986153685L81.2420307970047,85.4894225556392L81.46645629644394,85.97635347191371L81.91530729532242,90.59532180995608L82.13973279476167,97.25765489910091L82.28934979438782,93.27189676463674L82.7382007932663,89.0665317495099L83.03743479251862,109.16806002971329L83.26186029195786,120.00407967586374L83.71071129083633,141.11229877320736L83.93513679027558,125.63384369163026L84.45879628896714,127.46065123950623L84.6084132885933,101.24251200251582L85.05726428747177,108.40493094139094L85.13207278728484,152.35459870424958L85.35649828672409,144.54607323956807L85.43130678653716,120.31403697515556L85.58092378616332,125.74232992734453L85.65573228597641,145.44182339217153L85.80534928560257,114.460567988521L85.95496628522874,123.49065546235384L86.25420028448104,124.55968931764227L86.32900878429412,90.08678516715196L86.4038172841072,77.35785678519836L86.70305128335953,100.58957363823916L86.85266828298569,109.82512711491049L87.07709378242492,120.60838365812116L87.60075328111648,135.9535424947524L87.75037028074264,151.31870760940046L88.04960427999497,171.85462209097588L88.12441277980804,168.30109510219356L88.34883827924729,177.5465066664348L88.79768927812577,153.34762496868484L89.17173177719116,160.7809251902136L89.47096577644348,121.99036592161984L89.54577427625657,103.49402317781346L89.62058277606964,104.95213901632623L89.99462527513505,111.19270125094084L90.29385927438736,104.91708450691866L90.36866777420043,113.64098488294526L90.44347627401352,113.69817439181386L90.59309327363968,131.92313603826082L90.892327272892,145.85976668711152L91.71522077083587,109.81854230067387L91.93964627027512,148.52697018007805L92.0144547700882,146.458942619631L92.46330576896668,151.39306725294313L93.06177376747131,111.48530144398366L93.36100776672363,131.99701098126172L93.43581626653672,121.03412872607252L93.51062476634979,129.91405927559182L93.95947576522828,126.66972410409804L94.1839012646675,128.23023024516004L94.9319862627983,153.5222210877563L95.08160326242447,148.16169812187073L95.15641176223755,148.91151519505436L95.75487976074218,160.83942513327588L96.35334775924683,140.934011537782L96.65258175849915,121.58698619397478L96.72739025831223,84.2476326537249L97.02662425756454,101.97973934298331L98.22356025457381,111.50805824666304L98.37317725419997,150.50465386621602L98.52279425382613,115.26886676561193L98.89683675289155,110.41923564395073L99.0464537525177,114.69879000856774L99.19607075214387,122.7755175969275L99.86934725046157,99.44734517464339L100.1685812497139,100.98917002762283L100.24338974952698,103.23016942807949L100.76704924821854,107.8575179405898L101.21590024709701,116.17764633772777L101.36551724672317,90.93416587828607L101.6647512459755,91.100962857841L101.73955974578858,113.33332876421878L102.11360224485398,123.4020486521629L102.26321924448013,149.7387008536491L102.63726174354554,143.46223328700046L102.7868787431717,143.42611282188363L103.01130424261093,112.02808483603965L103.38534674167633,135.42344009549254L103.46015524148942,113.21295397549231L103.60977224111556,116.69113502065494L103.8341977405548,97.58662549124244L103.90900624036789,81.56146314206227L104.13343173980712,96.20082474904726L104.20824023962021,74.28431453161261L104.43266573905944,93.480173870915L104.50747423887253,135.64558293512567L104.80670823812486,150.6485521378534L105.03113373756408,120.52105570373078L105.10594223737716,108.96522072361881L105.3303677368164,118.05066207493839L105.62960173606872,127.2020792629835L105.92883573532104,122.43918142950537L106.0784527349472,137.5769350838756L106.1532612347603,129.10963371534623L106.37768673419951,106.23707572814617L106.52730373382568,140.32618113661496L106.60211223363876,162.4106690072294L106.826537733078,125.22460589022268L107.12577173233032,130.5059556822153L107.35019723176957,159.0999495025941L107.42500573158264,131.1634664887073L107.49981423139573,140.69613244462383L107.79904823064804,132.96332184247657L108.02347373008728,126.87582765666968L108.09828222990036,135.18108633950135L108.24789922952652,103.5263047206576L108.62194172859192,128.22011506460885L108.77155872821808,114.8933582931734L108.84636722803117,106.83622378325548L108.92117572784423,122.56453201902809L109.14560122728348,134.92845811803338L109.51964372634887,143.47346458683631L109.74406922578812,137.21249887443932L110.04330322504045,136.68460635665576L110.11811172485352,151.8363529571969L110.26772872447967,118.19016794874861L110.79138822317124,132.48120364979187L110.86619672298431,127.93000755428432L111.16543072223664,147.99212498140386L111.24023922204972,119.37544989035017L111.3150477218628,133.4316147907896L111.6890902209282,130.55208118097073L111.83870722055435,129.11489191612563L112.06313271999359,127.251781735336L112.28755821943282,133.5489567447508L112.73640921831131,135.20815797198964L112.88602621793746,126.73530142879297L112.96083471775054,108.03864789992943L113.03564321756362,111.6366396990496L113.33487721681594,135.14062154943798L113.40968571662903,130.60596501979697L113.63411121606826,125.11338507766293L113.85853671550751,157.1590107735517L114.00815371513367,163.59395895759053L114.2325792145729,174.85648417045127L114.90585571289063,156.4152719080022L115.05547271251679,159.21985515805892L115.65394071102142,149.4199964047018L115.7287492108345,164.09166383466604L115.80355771064758,171.30295299623344L116.1027917098999,133.09691301977344L116.17760020971298,110.00190058783717L116.62645120859146,123.17850021616988L116.70125970840455,131.9743841924719L116.77606820821762,92.94684788437726L117.29972770690918,75.5483575147896L117.52415320634842,84.81771985226486L117.9730042052269,115.8366933438028L118.04781270503999,155.72693216930668L118.19742970466615,157.66153771717887L119.0951317024231,106.78560068794322L119.31955720186234,91.13164264929652L119.4691742014885,102.37798033021429L119.91802520036697,122.46882991144551L120.14245069980622,135.71881333570315L120.66611019849778,135.3152117549299L121.04015269756317,124.77917950590697L121.11496119737625,147.42747140402676L121.3393866968155,131.68898522962954L121.56381219625473,127.26278475620066L121.78823769569397,146.45226918159062L122.01266319513321,121.94269255334098L122.16228019475938,129.1511704732016L122.31189719438552,151.09988033310125L122.68593969345092,186.08638426152146L122.760748193264,168.50022963581043L123.20959919214249,175.11219156362338L123.35921619176865,161.4643960171441L123.43402469158173,146.68563170896596L123.65845019102096,138.10387329322634L123.95768419027328,130.64913566305358L124.33172668933868,145.86603777560373L124.630960688591,142.97639860577425L125.30423718690872,115.05186419742223L125.45385418653488,118.92666576827939L125.52866268634796,100.0921779973757L126.1271306848526,116.94981682952046L126.20193918466569,129.4545990051021L126.35155618429184,142.15437385238147L127.02483268260956,144.64750579349067L127.09964118242264,118.94177596606139L127.17444968223572,99.91257940050777L127.84772618055344,101.66164017560617L127.9973431801796,95.25700440544297L128.14696017980577,132.30089505542017L128.29657717943192,131.34760469996027L128.6706196784973,103.82941089294985L128.7454281783104,87.24057961500925L128.89504517793657,106.58003011154949L128.96985367774963,52.15166347538266L129.1194706773758,70.05860322912808L129.1942791771889,95.169580261493L129.26908767700195,117.26834436265946L129.34389617681504,108.21078540538035L129.41870467662812,136.5459580240642L129.56832167625427,138.9046133885033L130.09198117494583,156.36844253471685L130.241598174572,111.10666025678347L130.76525767326356,144.02855420047192L130.98968317270277,125.7621061728703L131.13930017232894,134.90385174691326L131.21410867214203,140.66782249883056L131.7377681708336,147.27188478363348L131.81257667064668,126.66253438716234L132.4110446691513,95.00104895451163L132.63547016859053,101.68403164403287L132.71027866840362,107.1839976607469L133.5331721663475,106.31926747969852L133.9072146654129,115.04777346995878L133.98202316522597,111.78403222566793L134.13164016485214,110.15217154733527L134.43087416410447,90.27179791619643L134.87972516298294,111.2055045681307L135.02934216260908,122.03666601250814L136.00185266017914,139.35524014290627L136.37589515924452,127.58488184736947L136.67512915849684,144.87582639198925L136.8995546579361,144.94356461609445L137.5728311562538,147.87578634401382L137.72244815587996,142.1515253384685L138.3209161543846,99.36012991736654L138.3957246541977,75.5863203512032L138.62015015363693,107.51498773860507L138.91938415288925,129.34874612195097L139.21861815214157,134.01239017055087L139.4430436515808,138.90245307558587L139.66746915102004,148.8357848919752L140.04151165008545,126.64564889906113L140.11632014989854,116.17590629741812L140.34074564933775,123.52809260303614L140.565171148777,127.44898164867917L140.63997964859007,111.02681143387494L140.71478814840316,87.8586835111447L140.9392136478424,82.70097336150647L141.01402214765548,121.94400515845541L141.3880646467209,112.59465376537312L141.6872986459732,138.82593150996556L141.83691564559936,144.1915376137192L142.435383644104,148.4125322631412L143.40789414167403,167.78141808157187L143.48270264148712,133.50475684464567L143.78193664073945,145.9739321609085L143.85674514055253,165.64199268485075L144.23078763961792,161.93024822855878L144.9788726377487,158.19350345807658L145.7269576358795,156.0664885747259L146.2506171345711,139.23483949246545L146.62465963363647,127.01534747583524L146.84908513307573,124.22420680859987L146.9238936328888,131.2094978850902L146.99870213270188,137.16123236736072L147.22312763214111,127.56705632092317L147.52236163139344,145.40852373951083L147.67197863101958,149.7893324960676L147.74678713083267,157.54495562982595L148.046021130085,130.25959932963315L148.12082962989808,148.98061160314685L148.19563812971117,136.24587977019272L148.34525512933732,123.66213800806398L148.7192976284027,130.86008468763723L148.7941061282158,152.31858074700156L149.31776562690735,153.50602440989107L149.39257412672043,149.97137497435574L150.2154676246643,154.81352314601938L150.36508462429046,173.90471333639556L150.66431862354278,173.90524851738482L151.11316962242125,147.38866778275948L151.33759512186052,156.73051481843345L151.786446120739,139.80167432593376L151.86125462055205,141.3236803502908L152.01087162017822,142.14047796399612L152.0856801199913,136.41809346486895L152.23529711961748,153.8629117274013L152.3849141192436,138.79375858723503L152.68414811849593,155.73216859347434L152.8337651181221,171.8790247656328L152.98338211774825,150.62260360853122L153.13299911737442,144.80987254900938L153.28261611700057,163.03935128107528L153.50704161643984,159.9460573683091L153.65665861606595,157.54082326009387L154.2551266145706,128.14141494092163L154.55436061382292,148.41330403853607L155.07802011251448,164.18195076464573L155.15282861232757,140.40573132036053L155.22763711214066,128.86291395844674L155.4520626115799,133.86061024782688L155.67648811101913,147.07552789045664L156.34976460933683,141.16851793984216L156.64899860858915,142.85547556849156L156.79861560821533,146.76007557450248L157.17265810728074,147.86543504690667L157.2474666070938,160.9533560036504L157.77112610578536,142.20600333723158L158.29478560447694,164.6550535126192L158.66882810354232,160.87071746359086L158.8184451031685,165.14880357212434L158.8932536029816,142.15077645683812L158.96806210279465,129.15441100266446L159.19248760223388,178.51477346209924L160.239806599617,163.36910924912314L160.9130830979347,148.99372439224314L160.98789159774782,165.22460348717107L161.13750859737397,140.91811921652234L161.21231709718703,158.13950946893448L161.73597659587858,178.82222782588516L161.81078509569167,173.6691321279628L161.96040209531785,163.70866923399302L162.0352105951309,136.0439124913088L162.25963609457017,101.75060017884434L162.5588700938225,131.00471144645488L162.78329559326173,137.97368399116968L162.85810409307481,166.11196487889276L163.00772109270093,152.95287503997406L163.60618909120558,132.2098767138599L163.98023159027102,141.0979269372636L164.3542740893364,122.94782827387195L165.0275505876541,115.4878570417368L165.62601858615875,96.35741368956386L165.77563558578493,106.79443907183509L165.92525258541107,145.40697196980753L166.2244865846634,121.93316540022442L166.37410358428957,131.56258587829527L166.97257158279422,155.34133794512823L167.04738008260728,142.53917801084893L167.12218858242034,116.89451275938274L167.57103958129883,132.8692225211952L168.31912457942963,107.62543267510856L168.46874157905577,140.48198517342382L168.693167078495,140.08763962958892L168.7679755783081,128.12918162386003L168.99240107774733,138.81895965703882L169.36644357681274,113.9354287205156L169.8152945756912,111.66407943512779L170.563379573822,118.41404895323373L170.71299657344818,107.3588532850879L170.78780507326127,94.64426816694575L170.86261357307433,69.73335798187809L170.93742207288744,102.23155833034454L171.0122305727005,97.69635330915011L171.08703907251356,111.69857325949039L171.16184757232665,129.53447844502367L171.38627307176588,157.62294259438502L171.46108157157897,118.90586962514801L171.83512407064438,119.4814540071994L171.98474107027053,107.49938880963613L172.2091665697098,105.21501511241866L172.3587835693359,113.14103616539084L172.43359206914903,119.47742745430686L172.65801756858824,121.19115266565176L172.8076345682144,116.98100938772163L172.8824430680275,126.82095318244774L173.03206006765367,121.35465558780285L173.18167706727982,108.33299971835153L173.40610256671906,99.29282664024687L173.5557195663452,125.18883246373619L174.37861306428908,130.94239865800452L174.52823006391526,155.8942790448643L174.60303856372835,153.69175246037153L174.7526555633545,104.52851622461138L175.1266980624199,133.45835343032175L175.65035756111143,138.78524819524398L175.8747830605507,133.83701051464354L176.17401705980302,125.52330792742379L176.47325105905531,134.8428191308267L176.69767655849458,148.41727892825372L176.77248505830764,123.13266785085044L176.84729355812073,134.35051938471506L177.14652755737305,142.00422236388175L177.37095305681228,131.14636715680052L177.6701870560646,118.28493177442314L177.89461255550384,108.69766897257148L177.96942105531693,127.89552052680764L178.11903805494308,149.62070299607046L178.19384655475616,146.26916044812592L178.4182720541954,127.22913388876393L178.56788905382157,112.3830423480199L178.64269755363463,107.51642710097323L179.24116555213928,127.52831301811601L179.4655910515785,119.96444969024577L179.69001655101778,130.0612301237205L179.83963355064392,120.42381983415507L179.91444205045698,123.59505798843175L180.06405905008316,102.24591764766151L180.2136760497093,107.7306776507975L180.43810154914854,114.12014546806942L180.51291004896163,133.3341109507521L180.96176104784013,116.53688077566194L181.3358035469055,142.25481351565253L181.7098460459709,139.79859737284133L182.00908004522321,114.92564536015492L182.38312254428865,132.35732071365365L182.4579310441017,114.64284088504039L182.90678204298018,128.20023086104555L182.9815905427933,121.5486690002398L183.13120754241942,133.06550278393425L183.2808245420456,119.0144329066844L183.43044154167174,144.8950633951899L183.50525004148483,140.65605194561547L183.654867041111,144.07022181804885L183.80448404073715,121.59993043997308L183.87929254055024,121.16736367633449L183.95410104036333,120.06243980109397L184.3281435394287,116.04623273694199L184.62737753868103,104.54919075362206L184.85180303812027,112.46967343732959L185.0014200377464,102.4880904914419L185.22584553718568,15.522222706580084L185.30065403699874,30.09771649114281L185.37546253681185,80.06464572654716L185.525079536438,106.31235604588935L185.67469653606418,127.24399805140816L185.74950503587723,104.9359744782547L185.97393053531647,146.12403668364922L186.2731645345688,170.4034089700897L187.02124953269958,167.26540830434448L187.39529203176497,181.20821062912293L187.54490903139114,169.74318868010457L188.1433770298958,154.31398041952215L188.29299402952194,149.66140337396558L188.367802529335,138.4918971368854L188.74184502840043,139.79648047915367L188.8166535282135,130.23589850053148L188.89146202802658,135.8198248880712L188.96627052783964,137.72577170761417L189.1906960272789,129.66125994926173L189.8639725255966,140.62713697528415L189.9387810254097,124.42041713822704L190.38763202428817,161.73991242303975L190.46244052410125,163.8237229262101L190.53724902391434,155.41664821101378L191.28533402204513,153.11950200980527L191.3601425218582,157.3819408134308L191.4349510216713,155.75457137701372L191.65937652111052,169.12591973460778L192.10822751998901,158.27463747717107L192.25784451961516,151.45411000982324L192.55707851886748,122.71940373466825L192.63188701868057,163.34382493205692L192.70669551849366,156.36721425272202L192.8563125181198,128.00643390332564L192.9311210179329,114.43545260716824L193.00592951774598,139.98692679317506L193.23035501718522,123.22261309281923L193.6792060160637,120.80801337129591L194.05324851512907,128.2974407581952L194.3524825143814,135.95368519113163L194.65171651363372,143.59423939800868L194.95095051288604,159.65162223495614L195.02575901269915,149.5285396070385L195.25018451213836,155.75814239522956L195.32499301195145,151.90726589019982L195.39980151176454,166.86813824317466L195.54941851139068,165.63922080476968L196.07307801008224,157.12713189449573L196.2975035095215,155.37929086637132L196.6715460085869,138.02356702461432L196.82116300821303,127.34361436067739L196.9707800078392,136.7116130220282L197.71886500596997,151.25501643990506L197.94329050540924,164.62768785555255L198.16771600484847,150.82412300979135L198.24252450466156,156.56894066883717L198.4669500041008,153.69826271087817L198.54175850391388,147.5599531132573L198.76618400335312,137.40361789414055L198.8409925031662,101.94487036186446L198.91580100297926,125.91862561794791L199.28984350204468,116.83368019117033L199.36465200185776,114.52665041771529L199.6638860011101,144.64958728926794L200.11273699998856,110.51085565026683L200.48677949905397,91.69320610143076L200.7860134983063,145.70907452834737L201.16005599737167,125.27593516930287L201.459289996624,111.46241430873407L201.53409849643708,95.65787302202739L201.60890699625014,158.07147252511288L201.68371549606326,147.68374022883248L201.83333249568938,153.8601617752299L201.98294949531555,132.89945285514776L202.35699199438096,124.6330886352426L202.43180049419402,121.37485994599281L202.5814174938202,112.93565290269801L202.80584299325943,111.29351715749378L202.9554599928856,118.37067067068739L203.10507699251173,107.39189446986514L203.17988549232484,116.13497432523484L203.329502491951,156.7446219230032L203.40431099176405,178.79710818265036L203.7783534908295,152.8816039904034L203.85316199064255,157.00165329648283L204.75086398839952,142.60352843675346L204.97528948783875,162.70550695694797L205.42414048671722,133.63887811890098L205.5737574863434,97.04889230563782L205.8729914855957,92.00473669251164L205.94779998540878,98.30604232335449L206.47145948410034,107.8671366307341L206.77069348335266,158.91143569219463L206.84550198316575,162.05524957533345L207.21954448223113,104.62039913697703L207.4439699816704,99.41761197784757L207.51877848148345,112.53246731055866L207.6683954811096,124.9662175368021L207.74320398092271,115.13741277466832L207.81801248073577,127.90682006511452L207.89282098054886,136.73159418994302L208.04243798017504,122.67442332419456L208.1172464799881,102.2692243571557L208.19205497980118,130.48891952309222L208.26686347961424,141.69515024056074L208.49128897905348,126.95789690628843L208.8653314781189,98.12899930429296L209.2393739771843,126.37441017996238L209.53860797643662,162.09007806774437L209.68822497606277,147.95437622024386L209.83784197568895,164.01347872098071L210.06226747512815,157.21937973001678L210.88516097307206,151.5074907519918L210.95996947288512,130.4249670258898L211.03477797269824,158.61184212367021L211.1095864725113,127.33100365150356L211.25920347213744,107.16950318100969L211.63324597120285,124.98200945967331L212.08209697008132,124.59434472536137L212.4561394691467,129.2250648228215L212.68056496858597,136.09481933733096L212.75537346839903,167.5495708700934L213.27903296709061,158.5073568566038L213.35384146690367,180.22825030962576L213.50345846652985,174.74067458255522L213.57826696634294,161.772068530718L213.80269246578217,138.62102513323106L213.95230946540832,137.09082143068983L214.0271179652214,112.4392767743945L214.1019264650345,142.6193874146397L214.32635196447373,144.8299484189259L214.47596896409988,135.8373950323994L214.70039446353914,123.92873394786248L214.7752029633522,125.04219534088969L214.99962846279146,141.135477723681L215.07443696260452,129.46716859493128L215.14924546241758,141.60730809182294L215.59809646129608,126.82694533121196L216.12175595998764,105.64894394978302L216.19656445980073,92.31028319693382L216.2713729596138,90.64661873778954L216.34618145942687,60.15034331787201L216.5706069588661,75.804521253767L216.79503245830537,100.33987453301653L217.0942664575577,143.18628878531888L217.16907495737075,167.57332481692995L217.3186919569969,144.07472151716908L217.39350045681002,123.55747450696978L217.46830895662308,120.80318555601632L218.29120245456696,127.08654264412228L218.36601095438004,98.17234587254927L218.4408194541931,119.91403783779765L218.5156279540062,128.81093237099262L218.74005345344543,120.26108342504266L218.8896704530716,156.54337359972826L218.9644789528847,137.49851813152077L219.41332995176313,149.82088022582428L219.86218095064163,171.3994153511509L220.01179795026778,138.88540754669623L220.0866064500809,127.00626726940945L220.46064894914628,129.5015425008712L220.6850744485855,114.29900911652226L220.83469144821166,103.40964082335097L221.28354244709016,123.42638219270083L221.65758494615557,125.61194753821009L221.8820104455948,115.567158003607L222.03162744522095,115.10276452136196L222.48047844409945,129.3839131249611L223.3781804418564,132.149837115958L223.45298894166947,131.9956408871186L223.52779744148253,134.7427013537521L223.6774144411087,135.06645636071352L224.35069093942644,142.07400132959407L224.87435043811797,139.29724671169618L225.02396743774415,137.45719196833582L225.0987759375572,159.43872145170783L225.47281843662262,160.78679324825L225.69724393606185,141.96962241937294L225.7720524358749,119.8876883772634L226.07128643512723,114.90956650420033L226.2209034347534,119.97031835683025L226.744562933445,139.10302556771947L226.9689884328842,136.40139710000074L227.11860543251038,124.55496667236379L227.3430309319496,119.65948932527336L227.49264793157576,144.6727529150291L227.64226493120194,149.32183289638573L227.71707343101502,131.5962139546155L227.79188193082808,131.66869404343603L227.94149893045426,121.16408705519557L228.24073292970658,117.39520434903898L228.31554142951967,135.29496218281997L228.4651584291458,113.90299248903457L228.5399669289589,151.1986366635119L228.83920092821123,180.52743939817265L228.9140094280243,162.8748244862078L228.98881792783737,162.3919836363661L229.36286042690276,102.93466357107242L229.43766892671587,100.0730852412668L229.51247742652893,110.81751877908972L230.26056242465972,101.39372904336904L230.3353709244728,135.03634241980794L230.78422192335128,122.26348772360058L231.15826442241666,112.7352752408503L231.30788142204284,127.0402189064844L231.5323069214821,130.15017827432624L231.68192392110825,157.94342942188587L231.83154092073443,134.4112187579569L232.43000891923907,163.98766380247227L232.5796259188652,162.12563982722094L232.65443441867828,163.16195905865627L232.80405141830445,162.36747687282528L232.8788599181175,153.90762957337557L233.17809391736984,140.96939893147066L233.25290241718292,139.67085285011206L233.47732791662216,109.68550452630956L233.70175341606142,97.84261063288339L233.92617891550063,125.0259010607161L234.15060441493986,122.26313148659422L234.30022141456604,127.4103321634082L234.67426391363145,134.34624220103532L234.8238809132576,83.26991047032122L235.1231149125099,91.7616103397467L235.197923412323,117.20650513519162L235.64677441120148,124.87425156764621L235.79639141082765,111.47392234790611L236.09562541007998,108.0084024450371L236.17043390989303,119.9299608845144L236.32005090951918,116.30527683221197L236.3948594093323,150.05843199040305L236.6940934085846,153.11617923886078L237.06813590765,170.439800728995L237.36736990690233,143.61504861290683L237.66660390615465,113.10047558786337L238.1154549050331,117.10618106580986L238.5643059039116,128.50854072734833L238.78873140335085,125.33887370569626L239.2375824022293,118.18999560284077L239.46200790166856,110.64247229447578L239.6116249012947,127.88387382180883L239.6864334011078,135.86598856600392L239.98566740036011,122.5413342675875L240.21009289979935,137.8333701033158L240.43451839923858,123.35271606138402L240.50932689905164,149.06687315948835L240.88336939811708,171.54614673797272L240.95817789793014,183.46970542421948L241.03298639774323,188.54332625209213L241.25741189718246,160.06743589139353L241.48183739662173,151.7795474241996L241.93068839550017,147.58316670349961L242.15511389493943,141.24833794338025L242.2299223947525,128.12586261801093L242.45434789419176,153.98196226158686L242.82839039325714,127.41293637671725L242.90319889307023,126.658907745753L243.20243289232252,162.95529981829736L243.42685839176178,153.17451962010037L244.1001348900795,162.3515963023098L244.3993688893318,165.25992328905252L244.92302838802337,156.4839535814783L245.37187938690184,131.11454875233414L245.521496386528,125.46598370785789L245.5963048863411,157.45034999722165L245.74592188596728,165.55252504520058L245.8955388855934,155.6345459601102L246.11996438503266,123.3492145614089L246.3443898844719,136.75811740426792L246.41919838428498,118.50200756203733L246.49400688409804,132.22351709920244L247.01766638278963,147.52434343974485L247.16728338241575,137.46265790955147L247.24209188222886,134.39353299844043L247.31690038204192,134.63854796351512L247.61613438129424,127.24803590853642L247.69094288110733,168.8626310898236L247.7657513809204,162.84021477265838L247.91536838054657,169.49942131848243L248.13979387998583,165.6321321806317L248.28941087961198,126.88498990751539L248.66345337867736,122.72619703060052L248.73826187849045,114.20049711065137L248.96268737792968,96.0895678682901L249.3367298769951,106.71418647890019L249.41153837680818,120.65916616642491L249.56115537643433,170.27521056738536L249.63596387624742,135.43485320518477L249.7107723760605,97.06626901904325L249.86038937568662,116.85405781052262L250.0100063753128,147.29625448740708L250.3840488743782,143.5053960671977L250.45885737419127,129.62461446808155L250.53366587400438,132.23414681091612L250.7580913734436,120.01315777252687L250.98251687288285,148.52314246797957L251.2069423723221,142.39523798590145L251.5061763715744,152.4168714509974L251.80541037082673,139.48736684466425L251.95502737045288,128.477320461301L252.2542613697052,156.11072374089198L252.40387836933138,150.45048903569364L252.5534953689575,145.57119029404836L252.70311236858367,136.5951253008079L252.77792086839676,150.3406479758693L253.15196336746214,130.30742011179476L253.30158036708832,143.53979421306488L253.3763888669014,144.89119306659887L253.90004836559297,101.39814361230773L253.97485686540603,108.87160248275936L254.27409086465835,120.89879399450939L254.4237078642845,126.40815703488792L254.79775036334993,144.438898849789L254.94736736297608,135.76198181984608L255.09698436260226,118.51029627131625L255.24660136222838,153.81215832690228L255.47102686166764,129.12678012186234L255.84506936073302,120.04570404985604L255.9198778605461,105.54412141968872L255.9946863603592,117.19460501525252L256.06949486017226,104.41364035542081L256.1443033599854,139.35239121511907L256.21911185979843,135.66223340636915L256.5183458590507,142.90230725062074L256.6679628586769,150.00095947266615L256.8175798583031,121.72054264778126L257.0420053577423,112.41221988254217L257.26643085718155,143.07037330022422L257.3412393569946,134.80596925528573L257.5656648564339,126.6422230081101L258.31374985456466,132.83963479116304L258.3885583543778,132.93444568861202L258.76260085344313,142.27109387139532L258.83740935325625,151.11509499516018L259.13664335250854,150.3170092862991L259.2862603521347,153.0447340905254L259.66030285120013,163.3944248062541L259.9595368504524,150.50026805698732L260.0343453502655,151.65099132425271L260.2587708497048,139.50975834246196L260.4083878493309,137.81255429067687L260.483196349144,137.21864157901993L260.6328133487701,152.79269541034367L261.00685584783554,159.52090173054677L261.08166434764865,130.99004526603457L261.30608984708783,138.58761526906073L261.38089834690095,136.53729707162293L261.6801323461533,101.42502878804294L261.8297493457794,114.57156489569893L262.05417484521865,100.6720125666753L262.2786003446579,159.43413391259776L262.5030258440971,170.87129618605258L262.8022598433495,176.4394561793911L262.95187684297565,152.64172549240786L263.0266853427887,159.7983730320779L263.25111084222794,160.1264392944868L263.325919342041,137.75179617018026L263.62515334129336,135.78571688752385L263.92438734054565,134.57070695384454L263.9991958403587,154.65815784407928L264.1488128399849,147.75321100820335L264.3732383394241,127.22765227291193L264.8220893383026,128.90459835850845L265.196131837368,119.12141669954516L265.42055733680724,133.8688457328265L265.79459983587265,120.47032701738904L265.8694083356857,155.77897101567808L265.9442168354988,143.35310152695243L266.0190253353119,124.77152731976344L266.2434508347511,145.85073956994628L266.54268483400347,139.9007309305481L266.9167273330689,121.28456744189381L267.066344332695,127.59099385201019L267.73962083101276,111.51116438519328L267.8144293308258,110.5683960680674L267.96404633045194,136.2312287434159L268.1136633300781,154.79902563700693L268.86174832820893,127.00159362880116L269.08617382764817,153.71632574935023L269.23579082727434,138.22305306127257L269.38540782690046,128.04596289487282L269.60983332633975,155.5971087664069L269.7594503259659,140.377460882706L269.90906732559205,134.5836854549234L270.05868432521817,123.12578369994411L270.1334928250313,131.05444973369757L270.20830132484434,154.876135422443L270.28310982465746,156.97946263167867L270.7319608235359,149.75900696532545" fill="none"></path></g></g></g></g><g opacity="0.2"><g><g><g><path style="fill: none;" stroke="rgb(255, 112, 67)" stroke-width="2px" d="M44.06220638990402,-22.855473831355482L44.21182338953018,123.92198769812916L44.28663188934326,-45.64186712495906L44.436248888969416,-28.77946737072223L44.5110573887825,9.23789613901912L44.58586588859558,-9.280105206490989L47.353780381679535,-41.81090344877619L47.57820588111878,154.74896294356998L48.40109937906266,25.055928225270854L48.47590787887573,46.84138992613654L48.70033337831497,112.2396159938729L48.924758877754215,6.973207888064444L49.37360987663269,82.81701249770347L49.44841837644577,20.28004586129464L49.598035376071934,23.893461058908798L49.747652375698095,-0.8635067218992125L50.19650337457657,-40.08198814292602L50.27131187438965,52.762438646842476L50.49573737382889,71.38289514159392L50.57054587364197,87.22295201741309L50.64535437345505,111.55408674978753L51.24382237195969,43.44877477769578L51.543056371212,47.36397253765608L51.99190737009048,25.035866648143966L52.14152436971664,72.9676983842298L52.2911413693428,-1.65142976483712L52.51556686878204,34.85941359833536L52.6651838684082,43.51368348901153L53.33846036672592,117.18059225402183L53.413268866539,148.16741593739573L53.93692836523056,86.92975850949435L54.01173686504364,83.82604234175861L54.1613538646698,38.59804493942349L54.23616236448288,170.78905276196483L54.460587863922115,80.48496151988233L54.535396363735195,65.58105022626279L54.610204863548276,109.42074968118355L54.83463036298752,88.56695498413748L55.133864362239834,129.5630332445013L55.358289861679076,25.82532345080108L55.73233236074448,99.81278799712032L55.956757860183714,138.60881064109574L56.106374859809875,34.296523781395734L56.25599185943604,93.11725196861647L56.33080035924912,-33.30197262908969L56.4056088590622,-32.72675138400784L56.55522585868835,18.960153597355784L56.63003435850143,26.860672611637384L56.704842858314514,22.978788112777693L56.854459857940675,-25.593480331649587L57.15369385719299,1.6854178802142095L57.90177885532379,60.17123429515446L57.97658735513687,82.6775017136467L58.50024685382843,153.9127878198666L58.64986385345459,76.56651218931736L58.72467235326767,112.56842340247105L58.94909785270691,14.441636114258216L59.24833185195923,105.3707037667128L59.47275735139847,140.0282439108095L59.62237435102463,144.6264862241101L59.99641685009003,60.36350641355106L60.07122534990311,47.716369170735234L60.14603384971619,63.76397441175404L60.37045934915543,103.41571227825527L60.59488484859467,109.76725667694103L60.96892734766006,88.9757939748825L61.11854434728622,66.42394321753619L61.64220384597778,82.92044925316506L61.86662934541702,161.3993144107467L62.01624634504318,50.48768893212995L62.24067184448242,18.060572846861433L62.3154803442955,159.15441166016947L62.76433134317398,97.25800443287964L63.0635653424263,106.30770825435519L63.287990841865536,62.87764534523343L63.4376078414917,141.06012677468044L63.58722484111786,55.53191789657418L63.66203334093094,81.34466451767796L63.73684184074402,110.36186464487335L63.961267340183255,137.02090920382713L64.18569283962249,110.80622551071461L64.26050133943558,137.27493048851795L64.41011833906174,187.29071223025014L64.5597353386879,159.19978027266288L64.70935233831406,135.22239188192046L64.85896933794021,72.81665372708481L65.00858633756637,73.91777050467962L65.08339483737946,74.5009673003012L65.15820333719253,96.66901002551953L65.3078203368187,106.36543897018517L65.45743733644485,170.61852935638623L65.83147983551025,89.63218178430344L66.0559053349495,155.09234106950035L66.28033083438874,150.5769831314243L66.87879883289337,173.65580305308703L66.95360733270645,172.2372900392048L67.10322433233262,152.72289702972557L67.17803283214569,89.55978832555807L67.55207533121109,96.57986791064071L67.70169233083725,68.14893209850528L68.07573482990266,130.07681207523274L68.30016032934189,154.4412600687078L68.37496882915497,99.96720692564752L69.34747932672501,88.97039514067099L69.79633032560349,110.40824553878139L69.87113882541657,208.9308348601262L70.09556432485581,108.40693450680457L70.39479832410812,171.55041108656653L70.54441532373428,95.50979442976215L70.61922382354736,89.97868878006095L70.76884082317352,143.08493500555514L70.8436493229866,91.1521990164011L70.99326632261275,164.80671500288042L71.06807482242584,31.43182872829724L71.44211732149124,93.26976903509188L72.04058531999588,147.78664474951174L72.56424481868744,183.34161838049593L72.63905331850052,109.2416985715663L73.16271281719207,144.37737297052064L73.31232981681823,142.99106891074123L73.53675531625747,116.07849387020673L73.98560631513595,107.01786967953063L74.35964881420135,-14.958942592343774L74.43445731401444,86.9100036843113L74.50926581382751,105.97656953098391L74.65888281345367,230.9582318190956L74.80849981307983,128.23145373150228L75.10773381233216,117.88722603184313L75.48177631139754,79.67801985642654L75.55658481121063,178.16640633603362L75.85581881046295,129.99006262551583L75.93062731027602,114.31353521095578L76.00543581008911,134.1356310952972L76.15505280971527,175.8656133812894L76.30466980934143,96.82726335334468L76.52909530878067,174.8632093792211L76.67871230840683,74.58201116386276L76.75352080821992,100.39733450129478L76.82832930803298,190.26206493422052L76.97794630765914,106.50783322251398L77.35198880672455,87.03061854862773L77.42679730653762,167.59453801885354L77.50160580635071,126.27321067244007L77.80083980560303,195.10297871029005L77.9504568052292,120.37259163119364L78.02526530504227,97.73758042187332L78.10007380485536,167.51398495840212L78.2496908044815,233.59347641820452L78.47411630392074,174.080071666607L78.54892480373383,133.2794250696613L78.6237333035469,85.82072753174857L78.84815880298615,190.0424612176281L78.99777580261231,163.51114816808777L79.3718183016777,134.5921393381144L79.4466268014908,82.01853718789756L79.7458608007431,174.46252999018213L79.82066930055618,121.71766822972148L79.97028630018234,68.78133190591821L80.26952029943466,80.34213781483214L80.49394579887391,109.07804640952963L80.64356279850007,98.47811028948854L80.79317979812623,58.503669378071535L80.94279679775238,132.86092339268544L81.2420307970047,58.672321596792735L81.46645629644394,86.70674984632537L81.91530729532242,97.52377431701942L82.13973279476167,107.25115453281813L82.28934979438782,87.29325956294038L82.7382007932663,82.75848422681949L83.03743479251862,139.32035245001845L83.26186029195786,136.25810914508938L83.71071129083633,172.77462741922284L83.93513679027558,102.41616106926466L84.45879628896714,130.20086256132015L84.6084132885933,61.91530314703017L85.05726428747177,119.14855934970365L85.13207278728484,218.2791003485376L85.35649828672409,132.83328504254578L85.43130678653716,83.96598257853674L85.58092378616332,133.88476935562787L85.65573228597641,174.99106358941208L85.80534928560257,67.9886848830452L85.95496628522874,137.0357866731032L86.25420028448104,126.16324010057477L86.32900878429412,38.37742894141642L86.4038172841072,58.264464212267995L86.70305128335953,135.43714891780027L86.85266828298569,123.67845732991753L87.07709378242492,136.78326847293712L87.60075328111648,158.97128074969922L87.75037028074264,174.3664552813726L88.04960427999497,202.65849381333894L88.12441277980804,162.97080461902013L88.34883827924729,191.41462401279668L88.79768927812577,117.04930242205988L89.17173177719116,171.9308755225067L89.47096577644348,63.8045270187292L89.54577427625657,75.74950906210374L89.62058277606964,107.13931277409542L89.99462527513505,120.5535446028627L90.29385927438736,95.5036593908854L90.36866777420043,126.7268354469852L90.44347627401352,113.7839586551168L90.59309327363968,159.26057850793123L90.892327272892,166.76471266038754L91.71522077083587,55.756705721017426L91.93964627027512,206.58961199918434L92.0144547700882,143.3569012789604L92.46330576896668,158.79425420291128L93.06177376747131,51.62365273054456L93.36100776672363,162.76457528717899L93.43581626653672,104.58980534328872L93.51062476634979,143.23395509987083L93.95947576522828,121.80322134685743L94.1839012646675,130.570989456753L94.9319862627983,191.46020735165075L95.08160326242447,140.12091367304245L95.15641176223755,150.03624080482967L95.75487976074218,178.73129004060814L96.35334775924683,111.07589114454112L96.65258175849915,92.56644817826401L96.72739025831223,28.238602343350067L97.02662425756454,128.57789937687102L98.22356025457381,125.80053660218272L98.37317725419997,208.99954729554554L98.52279425382613,62.41518611470581L98.89683675289155,103.14478896145903L99.0464537525177,121.11812155549342L99.19607075214387,134.89060897946712L99.86934725046157,64.45508654121724L100.1685812497139,103.301907307092L100.24338974952698,106.59166852876446L100.76704924821854,114.79854070935536L101.21590024709701,128.65783893343476L101.36551724672317,53.068945189123696L101.6647512459755,91.35115832717332L101.73955974578858,146.68187762378528L102.11360224485398,138.50512848407908L102.26321924448013,189.24367915587837L102.63726174354554,134.04753193702743L102.7868787431717,143.37193212420837L103.01130424261093,64.93104285727367L103.38534674167633,170.51647298467188L103.46015524148942,79.89722479549197L103.60977224111556,121.9084065883989L103.8341977405548,68.92986119712376L103.90900624036789,57.52371961829207L104.13343173980712,118.15986715952484L104.20824023962021,41.40954920546077L104.43266573905944,122.27396287986863L104.50747423887253,198.89369653144158L104.80670823812486,173.15300594194494L105.03113373756408,75.3298110525469L105.10594223737716,91.63146825345095L105.3303677368164,131.67882410191785L105.62960173606872,140.9292050450511L105.92883573532104,115.29483467928814L106.0784527349472,160.28356556543093L106.1532612347603,116.40868166255215L106.37768673419951,71.92823874734611L106.52730373382568,191.45983924931815L106.60211223363876,195.537400813151L106.826537733078,69.44551121471258L107.12577173233032,138.42798037020427L107.35019723176957,201.99094023316238L107.42500573158264,89.25874196787714L107.49981423139573,154.99513137849863L107.79904823064804,121.36410593925575L108.02347373008728,117.74458637795925L108.09828222990036,147.63897436374893L108.24789922952652,56.04413229239204L108.62194172859192,165.26083058053567L108.77155872821808,94.90322313602024L108.84636722803117,94.7505220183785L108.92117572784423,146.15699437268697L109.14560122728348,153.47434726654137L109.51964372634887,156.2909742900407L109.74406922578812,127.8210503058437L110.04330322504045,135.89276757998033L110.11811172485352,174.56397285800878L110.26772872447967,67.7208904360761L110.79138822317124,153.91775720135675L110.86619672298431,121.10321341102298L111.16543072223664,178.08530112208328L111.24023922204972,76.4504372537697L111.3150477218628,154.5158621414488L111.6890902209282,126.23278076624246L111.83870722055435,126.95910801885806L112.06313271999359,124.45711646415162L112.28755821943282,142.9947192588729L112.73640921831131,137.69695981284795L112.88602621793746,114.02601661399802L112.96083471775054,79.9936676066341L113.03564321756362,117.03362739772984L113.33487721681594,170.39659432502066L113.40968571662903,123.80398022533535L113.63411121606826,116.87451516446195L113.85853671550751,205.22744931738487L114.00815371513367,173.2463812336487L114.2325792145729,191.75027198974237L114.90585571289063,128.75345351432853L115.05547271251679,163.42673003314403L115.65394071102142,134.72020827466605L115.7287492108345,186.0991649796124L115.80355771064758,182.11988673858468L116.1027917098999,75.78785305508327L116.17760020971298,75.35938193993272L116.62645120859146,142.94339965866905L116.70125970840455,145.16821015692503L116.77606820821762,34.40554342223517L117.29972770690918,49.45062196040817L117.52415320634842,98.72176335847773L117.9730042052269,162.36515358110972L118.04781270503999,215.5622904075626L118.19742970466615,160.56344603898717L119.0951317024231,30.471695144089608L119.31955720186234,67.65070559132636L119.4691742014885,119.24748685159085L119.91802520036697,152.60510428329243L120.14245069980622,155.59378847208956L120.66611019849778,134.70980938377L121.04015269756317,108.97513113237255L121.11496119737625,181.39990925120648L121.3393866968155,108.08125596803355L121.56381219625473,120.62348404605738L121.78823769569397,175.2364958196755L122.01266319513321,85.17832761096659L122.16228019475938,139.96388735299263L122.31189719438552,184.02294512295074L122.68593969345092,238.56614015415173L122.760748193264,142.12099769724392L123.20959919214249,185.03013445534287L123.35921619176865,140.99270269742522L123.43402469158173,124.5174852466986L123.65845019102096,125.23123566961691L123.95768419027328,119.4670292177945L124.33172668933868,168.691390944429L124.630960688591,138.6419398510301L125.30423718690872,73.16506258489409L125.45385418653488,124.73886812456527L125.52866268634796,71.84044634102015L126.1271306848526,142.23627507773762L126.20193918466569,148.21177226847448L126.35155618429184,161.20403612330054L127.02483268260956,148.38720370515446L127.09964118242264,80.38318122491745L127.17444968223572,71.36878455217746L127.84772618055344,104.28523133825365L127.9973431801796,85.65005075019806L128.14696017980577,187.86673103038595L128.29657717943192,129.91766916677045L128.6706196784973,62.55212018243434L128.7454281783104,62.35733269809829L128.89504517793657,135.58920585635994L128.96985367774963,-29.490886478867395L129.1194706773758,96.91901285974615L129.1942791771889,132.8360458100403L129.26908767700195,150.41649051440916L129.34389617681504,94.62444696946179L129.41870467662812,179.04871695208996L129.56832167625427,142.4425964351619L130.09198117494583,182.5641862540372L130.241598174572,43.213986839883454L130.76525767326356,193.4113951160047L130.98968317270277,98.36243413146786L131.13930017232894,148.6164701079777L131.21410867214203,149.3137786267064L131.7377681708336,157.17797821083778L131.81257667064668,95.74850879245554L132.4110446691513,47.50882080553558L132.63547016859053,111.70850567831472L132.71027866840362,115.4339466858179L133.5331721663475,105.022172208126L133.9072146654129,128.14053245534922L133.98202316522597,106.8884203592317L134.13164016485214,107.70438052983627L134.43087416410447,60.45123746948824L134.87972516298294,142.6060645460323L135.02934216260908,138.2834081790742L136.00185266017914,165.33310133850352L136.37589515924452,109.92934440406414L136.67512915849684,170.81224320891886L136.8995546579361,145.04517195225228L137.5728311562538,152.27411893589306L137.72244815587996,133.56513383015044L138.3209161543846,35.17303678571361L138.3957246541977,39.92560600195826L138.62015015363693,155.40798881970792L138.91938415288925,162.09938369696994L139.21861815214157,141.00785624345073L139.4430436515808,146.2375474331384L139.66746915102004,163.7357826165591L140.04151165008545,93.3604449096899L140.11632014989854,100.47129239495371L140.34074564933775,134.5563720614631L140.565171148777,133.33031521714375L140.63997964859007,86.39355611166849L140.71478814840316,53.10649162704927L140.9392136478424,74.9644081370491L141.01402214765548,180.80855285387887L141.3880646467209,98.57062667574957L141.6872986459732,178.17284812685415L141.83691564559936,152.2399467693497L142.435383644104,154.74402423727423L143.40789414167403,196.8347468092179L143.48270264148712,82.08976498925635L143.78193664073945,164.67769513530286L143.85674514055253,195.1440834707641L144.23078763961792,156.3626315441209L144.9788726377487,152.58838630235334L145.7269576358795,152.8759662496999L146.2506171345711,113.98736586907464L146.62465963363647,108.68610945089L146.84908513307573,120.0374958077469L146.9238936328888,141.68743449982568L146.99870213270188,146.08883409076654L147.22312763214111,113.17579225126694L147.52236163139344,172.17072486739232L147.67197863101958,156.3605456309028L147.74678713083267,169.17839033046354L148.046021130085,89.33156487934386L148.12082962989808,177.0621300134173L148.19563812971117,117.14378202076146L148.34525512933732,104.78652536487094L148.7192976284027,141.65700470699713L148.7941061282158,184.506324836048L149.31776562690735,155.2871899042252L149.39257412672043,144.66940082105282L150.2154676246643,162.07674540351482L150.36508462429046,202.54149862195976L150.66431862354278,173.90605128886867L151.11316962242125,107.6137966808214L151.33759512186052,170.74328537194444L151.786446120739,114.40841358718437L151.86125462055205,143.6066893868263L152.01087162017822,143.36567438455413L152.0856801199913,127.83451671617811L152.23529711961748,180.03013912119985L152.3849141192436,116.19002887698564L152.68414811849593,181.1397836028333L152.8337651181221,196.09930902387038L152.98338211774825,118.73797187287875L153.13299911737442,136.09077595972667L153.28261611700057,190.38356937917408L153.50704161643984,155.30611649915988L153.65665861606595,153.93297209777103L154.2551266145706,84.0423024621632L154.55436061382292,178.82113768495782L155.07802011251448,187.83492085381013L155.15282861232757,104.74140215393261L155.22763711214066,111.54868791557601L155.4520626115799,141.35715468189713L155.67648811101913,166.89790435440128L156.34976460933683,132.30800301392048L156.64899860858915,145.38591201146565L156.79861560821533,152.6169755835189L157.17265810728074,149.5234742555129L157.2474666070938,180.58523743876603L157.77112610578536,114.08497433760334L158.29478560447694,198.3286287757007L158.66882810354232,155.1942133900484L158.8184451031685,171.56593273492464L158.8932536029816,107.65373578390889L158.96806210279465,109.65986282140395L159.19248760223388,252.55531715125142L160.239806599617,140.650612929659L160.9130830979347,127.43064710692323L160.98789159774782,189.57092212956294L161.13750859737397,104.45839281054924L161.21231709718703,183.97159484755255L161.73597659587858,209.84630536131127L161.81078509569167,165.93948858107913L161.96040209531785,148.76797489303846L162.0352105951309,94.54677737728245L162.25963609457017,50.310631710147646L162.5588700938225,174.8858783478706L162.78329559326173,148.42714280824194L162.85810409307481,208.3193862104773L163.00772109270093,133.2142402815961L163.60618909120558,101.09537922468866L163.98023159027102,154.430002272369L164.3542740893364,95.72268027878454L165.0275505876541,104.29790019353408L165.62601858615875,67.66174866130446L165.77563558578493,122.4499771452419L165.92525258541107,203.32577131676604L166.2244865846634,86.72245554584978L166.37410358428957,146.00671659540157L166.97257158279422,191.00946604537768L167.04738008260728,123.33593810942992L167.12218858242034,78.42751488218346L167.57103958129883,156.831287163914L168.31912457942963,69.75974790597849L168.46874157905577,189.76681392089682L168.693167078495,139.49612131383665L168.7679755783081,110.19149461526666L168.99240107774733,154.85362670680695L169.36644357681274,76.61013231573088L169.8152945756912,108.25705550704613L170.563379573822,128.53900323039255L170.71299657344818,90.77605978286903L170.78780507326127,75.57239048973265L170.86261357307433,32.36699270427662L170.93742207288744,150.97885885304424L171.0122305727005,90.89354577735834L171.08703907251356,132.7019031850007L171.16184757232665,156.28833622332374L171.38627307176588,199.7556388184272L171.46108157157897,60.830260171292394L171.83512407064438,120.34483058027647L171.98474107027053,89.52629101329116L172.2091665697098,101.7884545665924L172.3587835693359,125.03006774484908L172.43359206914903,128.98201438768098L172.65801756858824,123.76174048266908L172.8076345682144,110.66579447082637L172.8824430680275,141.58086887453695L173.03206006765367,113.15520919583552L173.18167706727982,88.80051591417447L173.40610256671906,85.73256702309001L173.5557195663452,164.03284119897017L174.37861306428908,139.57274794940696L174.52823006391526,193.32209962515398L174.60303856372835,150.38796258363237L174.7526555633545,30.783661870971137L175.1266980624199,176.8531092388872L175.65035756111143,146.77559034262728L175.8747830605507,126.414653993743L176.17401705980302,113.0527540465942L176.47325105905531,148.8220859359312L176.69767655849458,168.77896862439428L176.77248505830764,85.20575123474555L176.84729355812073,151.17729668551195L177.14652755737305,153.4847768326318L177.37095305681228,114.85958434617879L177.6701870560646,98.99277870085709L177.89461255550384,94.316774769794L177.96942105531693,156.69229785816177L178.11903805494308,182.2084766999646L178.19384655475616,141.24184662620908L178.4182720541954,98.66909404972102L178.56788905382157,90.11390503690399L178.64269755363463,100.21650423040326L179.24116555213928,157.5461418938301L179.4655910515785,108.61865469844037L179.69001655101778,145.20640077393264L179.83963355064392,105.96770439980702L179.91444205045698,128.3519152198468L180.06405905008316,70.22220713650611L180.2136760497093,115.95781765550153L180.43810154914854,123.7043471939773L180.51291004896163,162.15505917477623L180.96176104784013,91.34103551302672L181.3358035469055,180.8317126256385L181.7098460459709,136.11427315862454L182.00908004522321,77.61621734112519L182.38312254428865,158.5048337439017L182.4579310441017,88.07112114212049L182.90678204298018,148.5363158250533L182.9815905427933,111.57132620903114L183.13120754241942,150.34075345947596L183.2808245420456,97.93782809080966L183.43044154167174,183.71600912794813L183.50525004148483,134.29753477125402L183.654867041111,149.19147662669886L183.80448404073715,87.89449337285954L183.87929254055024,120.51851353087659L183.95410104036333,118.40505398823319L184.3281435394287,110.02192214071394L184.62737753868103,87.30362777864204L184.85180303812027,124.35039746289095L185.0014200377464,87.51571607261047L185.22584553718568,-114.92657897071265L185.30065403699874,51.96095716798696L185.37546253681185,155.0150395796536L185.525079536438,145.68392152490262L185.67469653606418,158.6414610596864L185.74950503587723,71.47393911852454L185.97393053531647,207.90612999174104L186.2731645345688,206.8224673997505L187.02124953269958,162.5584073057266L187.39529203176497,202.1224141162906L187.54490903139114,152.54565575657696L188.1433770298958,131.17016802864848L188.29299402952194,142.68253780563066L188.367802529335,121.73763778126522L188.74184502840043,141.75335549255612L188.8166535282135,115.89502553259825L188.89146202802658,144.1957144693808L188.96627052783964,140.58469193692855L189.1906960272789,117.56449231173298L189.8639725255966,157.07595251431783L189.9387810254097,100.11033738264152L190.38763202428817,217.71915535025883L190.46244052410125,166.94943868096578L190.53724902391434,142.80603613821916L191.28533402204513,149.6737827079927L191.3601425218582,163.77559901886906L191.4349510216713,153.313517222388L191.65937652111052,189.18294227099878L192.10822751998901,141.99771409101612L192.25784451961516,141.22331880880137L192.55707851886748,79.61734432193572L192.63188701868057,224.2804567281399L192.70669551849366,145.90229823371968L192.8563125181198,85.46526337923106L192.9311210179329,94.07898066293208L193.00592951774598,178.31413807218516L193.23035501718522,98.07614254228545L193.6792060160637,117.18611378901089L194.05324851512907,139.53158183854413L194.3524825143814,147.43805184053616L194.65171651363372,155.05507070832425L194.95095051288604,183.73769649037735L195.02575901269915,134.34391566516206L195.25018451213836,165.10254657751614L195.32499301195145,146.13095113265527L195.39980151176454,189.30944677263687L195.54941851139068,163.79584464716226L196.07307801008224,144.35899852908486L196.2975035095215,152.7575293241847L196.6715460085869,111.98998126197893L196.82116300821303,111.32368536477207L196.9707800078392,150.7636110140543L197.71886500596997,173.07012156672036L197.94329050540924,184.68669497902374L198.16771600484847,130.11877574114953L198.24252450466156,165.18616715740592L198.4669500041008,149.39224577393972L198.54175850391388,138.35248871682614L198.76618400335312,122.16911506546538L198.8409925031662,48.75674906345044L198.91580100297926,161.87925850207301L199.28984350204468,103.20626205100383L199.36465200185776,111.06610575753274L199.6638860011101,189.83399259659694L200.11273699998856,59.302758191765115L200.48677949905397,63.46673177817667L200.7860134983063,226.7328771687224L201.16005599737167,94.62622613073603L201.459289996624,90.74213301788073L201.53409849643708,71.95106109196753L201.60890699625014,251.69187177974098L201.68371549606326,132.10214178441194L201.83333249568938,163.12479409482594L201.98294949531555,101.45838947502456L202.35699199438096,112.23354230538494L202.43180049419402,116.48751691211808L202.5814174938202,100.27684233775588L202.80584299325943,108.83031353968744L202.9554599928856,128.98640094047784L203.10507699251173,90.92373016863183L203.17988549232484,129.2495941082894L203.329502491951,217.65909331965568L203.40431099176405,211.87583757212101L203.7783534908295,114.00834770203306L203.85316199064255,163.18172725560197L204.75086398839952,121.00634114715947L204.97528948783875,192.8584747372398L205.42414048671722,90.03893486183038L205.5737574863434,42.16391358574301L205.8729914855957,84.43850327282217L205.94779998540878,107.75800076961885L206.47145948410034,122.2087780918034L206.77069348335266,235.47788428438534L206.84550198316575,166.77097040004182L207.21954448223113,18.468123479442347L207.4439699816704,91.61343123915339L207.51877848148345,132.20475030962518L207.6683954811096,143.61684287616728L207.74320398092271,100.39420563146763L207.81801248073577,147.0609310007838L207.89282098054886,149.9687553771857L208.04243798017504,101.58866702557185L208.1172464799881,71.66142590659729L208.19205497980118,172.81846227199705L208.26686347961424,158.5044963167635L208.49128897905348,104.85201690488L208.8653314781189,54.885652901299835L209.2393739771843,168.74252649346653L209.53860797643662,215.66357989941739L209.68822497606277,126.75082344899322L209.83784197568895,188.10213247208594L210.06226747512815,147.02823124357084L210.88516097307206,142.93965728495425L210.95996947288512,98.80118143673695L211.03477797269824,200.8921547703407L211.1095864725113,80.40974594325367L211.25920347213744,76.92725247526886L211.63324597120285,151.70076887766862L212.08209697008132,124.01284762389349L212.4561394691467,136.17114496901178L212.68056496858597,146.3994511090952L212.75537346839903,214.73169816923706L213.27903296709061,144.94403583636947L213.35384146690367,212.80959048915875L213.50345846652985,166.50931099194943L213.57826696634294,142.31915945296217L213.80269246578217,103.89446003700057L213.95230946540832,134.79551587687786L214.0271179652214,75.46195978995158L214.1019264650345,187.88955337500738L214.32635196447373,148.14578992535527L214.47596896409988,122.34856495260959L214.70039446353914,106.06574232105712L214.7752029633522,126.71238743043051L214.99962846279146,165.27540129786792L215.07443696260452,111.9647049018068L215.14924546241758,159.81751733716044L215.59809646129608,104.65640119029558L216.12175595998764,73.88194187763955L216.19656445980073,72.30229206766009L216.2713729596138,88.151122049073L216.34618145942687,14.405930187995672L216.5706069588661,99.28578815760953L216.79503245830537,137.14290445189081L217.0942664575577,207.45591016377247L217.16907495737075,204.15387886434655L217.3186919569969,108.82681656752771L217.39350045681002,92.7816039916708L217.46830895662308,116.67175212958617L218.29120245456696,136.5115782762813L218.36601095438004,54.801050715189795L218.4408194541931,152.52657578567033L218.5156279540062,142.1562741707851L218.74005345344543,107.43631000611771L218.8896704530716,210.9668088617565L218.9644789528847,108.93123492920957L219.41332995176313,168.3044233672795L219.86218095064163,203.7672180391409L220.01179795026778,90.11439584001411L220.0866064500809,109.18755685347918L220.46064894914628,133.24445534806398L220.6850744485855,91.49520903999888L220.83469144821166,87.07558838359414L221.28354244709016,153.45149424672556L221.65758494615557,128.89029555647392L221.8820104455948,100.4999737017024L222.03162744522095,114.40617429799437L222.48047844409945,150.8056360303599L223.3781804418564,136.2987231024533L223.45298894166947,131.7643465438594L223.52779744148253,138.86329205370237L223.6774144411087,135.55208887115575L224.35069093942644,152.58531878291498L224.87435043811797,135.13211478484945L225.02396743774415,134.6971098532952L225.0987759375572,192.41101567676577L225.47281843662262,162.80890094306332L225.69724393606185,113.74386617605738L225.7720524358749,86.7647873140992L226.07128643512723,107.44238369460567L226.2209034347534,127.56144613577504L226.744562933445,167.80208638405318L226.9689884328842,132.34895439842265L227.11860543251038,106.7853210309083L227.3430309319496,112.3162733046376L227.49264793157576,182.19264829966266L227.64226493120194,156.29545286842074L227.71707343101502,105.00778554196008L227.79188193082808,131.77741417666684L227.94149893045426,105.40717657283494L228.24073292970658,111.7418802898041L228.31554142951967,162.1445989334914L228.4651584291458,81.81503794835655L228.5399669289589,207.14210292522793L228.83920092821123,224.52064350016371L228.9140094280243,136.39590211826064L228.98881792783737,161.6677223616035L229.36286042690276,13.748683473132004L229.43766892671587,95.78071774655837L229.51247742652893,126.93416908582418L230.26056242465972,87.25804443978797L230.3353709244728,185.5002624844664L230.78422192335128,103.10420567928948L231.15826442241666,98.4429565167249L231.30788142204284,148.49763440493552L231.5323069214821,134.815117326089L231.68192392110825,199.63330614322527L231.83154092073443,99.11290276206338L232.43000891923907,208.3523313692453L232.5796259188652,159.332603864344L232.65443441867828,164.71643790580939L232.80405141830445,161.17575359407883L232.8788599181175,141.21785862420109L233.17809391736984,121.56205296861332L233.25290241718292,137.72303372807403L233.47732791662216,64.70748204060575L233.70175341606142,80.07826979274415L233.92617891550063,165.80083670246512L234.15060441493986,118.11897712541148L234.30022141456604,135.13113317862917L234.67426391363145,144.75010725747615L234.8238809132576,6.6554128742500325L235.1231149125099,104.49916014388509L235.197923412323,155.37384732835892L235.64677441120148,136.37587121632814L235.79639141082765,91.37342851829584L236.09562541007998,102.81012259073363L236.17043390989303,137.8122985437304L236.32005090951918,110.86825075375833L236.3948594093323,200.68816472768958L236.6940934085846,157.7028001115473L237.06813590765,196.42523296419643L237.36736990690233,103.37792043877464L237.66660390615465,67.32861605029822L238.1154549050331,123.11473928272954L238.5643059039116,145.61208021965615L238.78873140335085,120.58437317321824L239.2375824022293,107.4666784485575L239.46200790166856,99.32118733192823L239.6116249012947,153.74597611280842L239.6864334011078,147.83916068229652L239.98566740036011,102.55435281996292L240.21009289979935,160.7714238569082L240.43451839923858,101.63173499848646L240.50932689905164,187.63810880664477L241.03298639774323,196.1537574939013L241.25741189718246,117.35360035034552L241.48183739662173,139.34771472340864L241.93068839550017,141.28859562244972L242.15511389493943,131.74609480320115L242.2299223947525,108.44214962995699L242.45434789419176,192.76611172695067L242.82839039325714,87.55939754941275L242.90319889307023,125.52786479930663L243.20243289232252,217.399887927114L243.42685839176178,138.50334932280484L244.1001348900795,176.1172113256239L244.3993688893318,169.62241376916657L244.92302838802337,143.3199990201169L245.37187938690184,93.060441508618L245.521496386528,116.99313614114345L245.5963048863411,205.42689943126723L245.74592188596728,177.705787617169L245.8955388855934,140.7575773324747L246.11996438503266,74.92121746335695L246.3443898844719,156.87147166855655L246.41919838428498,91.11784279869146L246.49400688409804,152.80578140495015L247.01766638278963,170.4755829505585L247.16728338241575,122.37012961426132L247.24209188222886,129.78984563177386L247.31690038204192,135.0060704111271L247.61613438129424,116.16226782606844L247.69094288110733,231.28452386175428L247.7657513809204,153.80659029691049L247.91536838054657,179.48823113721863L248.13979387998583,159.83119847385552L248.28941087961198,68.76427649784091L248.66345337867736,116.4880077152282L248.73826187849045,101.41194723072775L248.96268737792968,68.92317400474812L249.3367298769951,122.65111439481535L249.41153837680818,141.57663569771202L249.56115537643433,244.6992771688261L249.63596387624742,83.17431716188399L249.7107723760605,39.51339273983103L249.86038937568662,146.53574099774167L250.0100063753128,192.95954950273386L250.3840488743782,137.81910843688357L250.45885737419127,108.80344206940737L250.53366587400438,136.1484453251679L250.7580913734436,101.68167421494302L250.98251687288285,191.28811951115858L251.2069423723221,133.2033812627843L251.5061763715744,167.44932164864142L251.80541037082673,120.09310993516439L251.95502737045288,111.96225088625611L252.2542613697052,197.56082866027845L252.40387836933138,141.96013697789616L252.5534953689575,138.25224218158044L252.70311236858367,123.13102781094727L252.77792086839676,170.95893198846136L253.15196336746214,100.25757831568295L253.30158036708832,163.3883553649701L253.3763888669014,146.9182913468999L253.90004836559297,36.158569430870884L253.97485686540603,120.08179078843685L254.27409086465835,138.93958126213445L254.4237078642845,134.67220159545568L254.79775036334993,171.48501157214062L254.94736736297608,122.7466062749316L255.09698436260226,92.63276794852143L255.24660136222838,206.7649514102812L255.47102686166764,92.09871281430242L255.84506936073302,106.42408994184669L255.9198778605461,83.79174747443771L255.9946863603592,134.67033040859826L256.06949486017226,85.2421933656733L256.1443033599854,191.7605175046665L256.21911185979843,130.12699669324437L256.5183458590507,153.76241801699805L256.6679628586769,160.64893780573436L256.8175798583031,79.29991741045392L257.0420053577423,98.44973573468367L257.26643085718155,189.05760342674728L257.3412393569946,122.40936318787797L257.5656648564339,114.39660363734667L258.31374985456466,142.13575246574246L258.3885583543778,133.0766620347855L258.76260085344313,156.27606614557027L258.83740935325625,164.38109668080753L259.13664335250854,149.11988072300747L259.2862603521347,157.13632129686482L259.66030285120013,178.91896087984722L259.9595368504524,131.15903293308722L260.0343453502655,153.3770762251509L260.2587708497048,121.29790886977588L260.4083878493309,135.2667482129992L260.483196349144,136.3277725115346L260.6328133487701,176.15377615732922L261.00685584783554,169.6132112108515L261.08166434764865,88.19376056926623L261.30608984708783,149.98397027359997L261.38089834690095,133.46181977546638L261.6801323461533,48.756626362672904L261.8297493457794,134.2913690571829L262.05417484521865,79.82268407313975L262.2786003446579,247.57731593148142L262.8022598433495,184.7916961693989L262.95187684297565,116.94512946193306L263.0266853427887,170.53334434158288L263.25111084222794,160.6185386881002L263.325919342041,104.18983148372055L263.62515334129336,132.83659796353922L263.92438734054565,132.7481920533256L263.9991958403587,184.78933417943136L264.1488128399849,137.39579075438948L264.3732383394241,96.43931416997492L264.8220893383026,131.42001748690316L265.196131837368,104.44664421110032L265.42055733680724,155.98998928274852L265.79459983587265,100.3725489442328L265.8694083356857,208.74193701311182L265.9442168354988,124.71429729386396L266.0190253353119,96.89916600897992L266.2434508347511,177.46955794522066L266.54268483400347,130.97571797145065L266.9167273330689,93.36032220891236L267.066344332695,137.05063346718487L267.73962083101276,87.391420184968L267.8144293308258,109.15424359237858L267.96404633045194,174.7254777564386L268.1136633300781,182.6507209773934L268.86174832820893,85.30544561649235L269.08617382764817,193.78842393017393L269.23579082727434,114.98314402915607L269.38540782690046,112.78032764527318L269.60983332633975,196.92382757370797L269.7594503259659,117.54798905715455L269.90906732559205,125.89302231324935L270.05868432521817,105.93893106747517L270.1334928250313,142.9474487843277L270.20830132484434,190.60866395556116L270.28310982465746,160.1344534455321L270.7319608235359,138.92832346579564" fill="none"></path></g></g></g></g></g></g><g transform="translate(30, 176)" clip-path="url(#clip_1)"><clipPath id="clip_1"><rect width="299" height="23"></rect></clipPath><g><g><line x1="0" y1="0" x2="0" y2="5" style="visibility: inherit;" fill="rgb(0, 0, 0)" stroke="rgb(204, 204, 204)" stroke-width="1px"></line><line x1="37.40424990653992" y1="0" x2="37.40424990653992" y2="5" style="visibility: inherit;" fill="rgb(0, 0, 0)" stroke="rgb(204, 204, 204)" stroke-width="1px"></line><line x1="74.80849981307983" y1="0" x2="74.80849981307983" y2="5" style="visibility: inherit;" fill="rgb(0, 0, 0)" stroke="rgb(204, 204, 204)" stroke-width="1px"></line><line x1="112.21274971961975" y1="0" x2="112.21274971961975" y2="5" style="visibility: inherit;" fill="rgb(0, 0, 0)" stroke="rgb(204, 204, 204)" stroke-width="1px"></line><line x1="149.61699962615967" y1="0" x2="149.61699962615967" y2="5" style="visibility: inherit;" fill="rgb(0, 0, 0)" stroke="rgb(204, 204, 204)" stroke-width="1px"></line><line x1="187.02124953269958" y1="0" x2="187.02124953269958" y2="5" style="visibility: inherit;" fill="rgb(0, 0, 0)" stroke="rgb(204, 204, 204)" stroke-width="1px"></line><line x1="224.4254994392395" y1="0" x2="224.4254994392395" y2="5" style="visibility: inherit;" fill="rgb(0, 0, 0)" stroke="rgb(204, 204, 204)" stroke-width="1px"></line><line x1="261.8297493457794" y1="0" x2="261.8297493457794" y2="5" style="visibility: inherit;" fill="rgb(0, 0, 0)" stroke="rgb(204, 204, 204)" stroke-width="1px"></line><line x1="299.23399925231934" y1="0" x2="299.23399925231934" y2="5" style="visibility: inherit;" fill="rgb(0, 0, 0)" stroke="rgb(204, 204, 204)" stroke-width="1px"></line></g><g transform="translate(0, 8)"><text style="text-anchor: middle; visibility: hidden; font-family: Roboto, sans-serif; font-size: 12px; font-weight: 200;" x="0" y="0" dx="0em" dy="0.95em" fill="rgb(255, 255, 255)" stroke="none" stroke-width="1px">-500</text><text style="text-anchor: middle; visibility: inherit; font-family: Roboto, sans-serif; font-size: 12px; font-weight: 200;" x="37.40424990653992" y="0" dx="0em" dy="0.95em" fill="rgb(255, 255, 255)" stroke="none" stroke-width="1px">0</text><text style="text-anchor: middle; visibility: inherit; font-family: Roboto, sans-serif; font-size: 12px; font-weight: 200;" x="74.80849981307983" y="0" dx="0em" dy="0.95em" fill="rgb(255, 255, 255)" stroke="none" stroke-width="1px">500</text><text style="text-anchor: middle; visibility: inherit; font-family: Roboto, sans-serif; font-size: 12px; font-weight: 200;" x="112.21274971961975" y="0" dx="0em" dy="0.95em" fill="rgb(255, 255, 255)" stroke="none" stroke-width="1px">1k</text><text style="text-anchor: middle; visibility: inherit; font-family: Roboto, sans-serif; font-size: 12px; font-weight: 200;" x="149.61699962615967" y="0" dx="0em" dy="0.95em" fill="rgb(255, 255, 255)" stroke="none" stroke-width="1px">1.5k</text><text style="text-anchor: middle; visibility: inherit; font-family: Roboto, sans-serif; font-size: 12px; font-weight: 200;" x="187.02124953269958" y="0" dx="0em" dy="0.95em" fill="rgb(255, 255, 255)" stroke="none" stroke-width="1px">2k</text><text style="text-anchor: middle; visibility: inherit; font-family: Roboto, sans-serif; font-size: 12px; font-weight: 200;" x="224.4254994392395" y="0" dx="0em" dy="0.95em" fill="rgb(255, 255, 255)" stroke="none" stroke-width="1px">2.5k</text><text style="text-anchor: middle; visibility: inherit; font-family: Roboto, sans-serif; font-size: 12px; font-weight: 200;" x="261.8297493457794" y="0" dx="0em" dy="0.95em" fill="rgb(255, 255, 255)" stroke="none" stroke-width="1px">3k</text><text style="text-anchor: middle; visibility: hidden; font-family: Roboto, sans-serif; font-size: 12px; font-weight: 200;" x="299.23399925231934" y="0" dx="0em" dy="0.95em" fill="rgb(255, 255, 255)" stroke="none" stroke-width="1px">3.5k</text></g><line x1="0" y1="0" x2="299.23399925231934" y2="0" fill="rgb(0, 0, 0)" stroke="rgb(204, 204, 204)" stroke-width="1px"></line></g></g></g></g></svg>